PathFileType	4	(X/Y/Z)	 2.8Hzhigh3min.trc
DataRate	CameraRate	NumFrames	NumMarkers	Units	OrigDataRate	OrigDataStartFrame	OrigNumFrames
200	200	8	43	m	200	876	1000
Frame#	Time	C7			LSH			RSH			MAN			RASI			LASI			HIPR			HIPL			RPSI			LPSI			COX			RTHI1			RTHI2			RTHI3			RTHI4			RLKN			RMKN			RSHA1			RSHA2			RSHA3			RSHA4			RLMAL			RMMAL			RHEEL			RMET5			RMET1			RTOE			LTHI1			LTHI2			LTHI3			LTHI4			LLKN			LMKN			LSHA1			LSHA2			LSHA3			LSHA4			LLMAL			LMMAL			LHEEL			LMET5			LMET1			LTOE			
		X1	Y1	Z1	X2	Y2	Z2	X3	Y3	Z3	X4	Y4	Z4	X5	Y5	Z5	X6	Y6	Z6	X7	Y7	Z7	X8	Y8	Z8	X9	Y9	Z9	X10	Y10	Z10	X11	Y11	Z11	X12	Y12	Z12	X13	Y13	Z13	X14	Y14	Z14	X15	Y15	Z15	X16	Y16	Z16	X17	Y17	Z17	X18	Y18	Z18	X19	Y19	Z19	X20	Y20	Z20	X21	Y21	Z21	X22	Y22	Z22	X23	Y23	Z23	X24	Y24	Z24	X25	Y25	Z25	X26	Y26	Z26	X27	Y27	Z27	X28	Y28	Z28	X29	Y29	Z29	X30	Y30	Z30	X31	Y31	Z31	X32	Y32	Z32	X33	Y33	Z33	X34	Y34	Z34	X35	Y35	Z35	X36	Y36	Z36	X37	Y37	Z37	X38	Y38	Z38	X39	Y39	Z39	X40	Y40	Z40	X41	Y41	Z41	X42	Y42	Z42	X43	Y43	Z43	
876	4.3800	-0.285469	1.623658	-0.547542	-0.249803	1.610922	-0.731023	-0.223467	1.598598	-0.347048	-0.145111	1.565927	-0.545633	-0.185752	1.119228	-0.409965	-0.163346	1.114200	-0.688983	-0.248209	1.183024	-0.395292	-0.218294	1.174758	-0.713258	-0.329395	1.151221	-0.522164	-0.322089	1.153012	-0.606003	-0.324034	1.156094	-0.561838	-0.263705	0.893896	-0.363748	-0.252986	0.835543	-0.356399	-0.189639	0.846677	-0.344130	-0.193334	0.907754	-0.351756	-0.215454	0.565821	-0.371955	-0.190165	0.559929	-0.480124	-0.316342	0.402520	-0.362163	-0.328070	0.363126	-0.373649	-0.269735	0.347631	-0.364028	-0.261931	0.386329	-0.357204	-0.335113	0.167048	-0.381859	-0.287936	0.171415	-0.464379	-0.383809	0.153256	-0.429847	-0.242677	0.063122	-0.364946	-0.188881	0.074228	-0.427007	-0.164150	0.058996	-0.420538	-0.263985	0.903844	-0.744712	-0.252382	0.843506	-0.751847	-0.189140	0.851163	-0.761932	-0.191904	0.911287	-0.756184	-0.208824	0.572527	-0.732501	-0.194646	0.558725	-0.629915	-0.329005	0.371896	-0.750386	-0.340033	0.332936	-0.743051	-0.280054	0.320174	-0.752716	-0.276284	0.363538	-0.759305	-0.346561	0.176926	-0.750499	-0.312710	0.169222	-0.664701	-0.397357	0.162450	-0.706844	-0.250531	0.061207	-0.756540	-0.220534	0.059566	-0.682638	-0.197308	0.048233	-0.689980	
877	4.3850	-0.285442	1.625564	-0.547090	-0.249958	1.612949	-0.730511	-0.223580	1.600421	-0.346822	-0.145285	1.568192	-0.545321	-0.185619	1.121312	-0.410194	-0.163255	1.116522	-0.689021	-0.248002	1.186066	-0.395328	-0.218431	1.178147	-0.713147	-0.329196	1.153956	-0.522242	-0.321956	1.155779	-0.606070	-0.323804	1.158813	-0.561894	-0.263528	0.895839	-0.363938	-0.252806	0.837496	-0.356531	-0.189455	0.848626	-0.344313	-0.193143	0.909700	-0.351986	-0.214964	0.567662	-0.372036	-0.190272	0.561733	-0.480268	-0.315579	0.404178	-0.361510	-0.327234	0.364751	-0.373009	-0.268795	0.349386	-0.363601	-0.261063	0.388081	-0.356875	-0.333857	0.168659	-0.381075	-0.286819	0.173045	-0.463715	-0.382589	0.154101	-0.429089	-0.240451	0.066082	-0.363275	-0.186392	0.077418	-0.425059	-0.161488	0.062303	-0.418455	-0.263617	0.906038	-0.744816	-0.252061	0.845688	-0.751971	-0.188814	0.853292	-0.762022	-0.191526	0.913413	-0.756255	-0.207409	0.574406	-0.732331	-0.193951	0.560557	-0.629662	-0.327361	0.373636	-0.750759	-0.338370	0.334675	-0.743400	-0.278331	0.321960	-0.752714	-0.274576	0.365318	-0.759357	-0.344504	0.178557	-0.750691	-0.311052	0.171032	-0.664697	-0.395543	0.163630	-0.707331	-0.247502	0.063781	-0.756606	-0.217630	0.062362	-0.682623	-0.194326	0.051120	-0.689859	
878	4.3900	-0.285404	1.627219	-0.546629	-0.250120	1.614657	-0.730071	-0.223634	1.601916	-0.346530	-0.145432	1.570149	-0.545025	-0.185486	1.123152	-0.410424	-0.163245	1.118631	-0.689096	-0.247792	1.188807	-0.395290	-0.218681	1.181116	-0.713060	-0.329065	1.156315	-0.522270	-0.321900	1.158170	-0.606098	-0.323652	1.161162	-0.561914	-0.263201	0.897546	-0.364064	-0.252465	0.839218	-0.356624	-0.189101	0.850333	-0.344572	-0.192785	0.911402	-0.352274	-0.214513	0.569342	-0.372155	-0.190440	0.563398	-0.480508	-0.314883	0.405697	-0.360928	-0.326453	0.366219	-0.372439	-0.267924	0.350996	-0.363204	-0.260268	0.389686	-0.356564	-0.332648	0.170076	-0.380321	-0.285745	0.174486	-0.463078	-0.381425	0.154743	-0.428334	-0.238291	0.068915	-0.361650	-0.184026	0.080450	-0.423128	-0.158963	0.065503	-0.416341	-0.263193	0.907915	-0.744929	-0.251653	0.847557	-0.752071	-0.188395	0.855146	-0.762074	-0.191092	0.915264	-0.756313	-0.205945	0.576080	-0.732151	-0.193235	0.562169	-0.629412	-0.325735	0.375234	-0.751056	-0.336735	0.336273	-0.743691	-0.276649	0.323605	-0.752699	-0.272906	0.366957	-0.759385	-0.342484	0.180016	-0.750830	-0.309369	0.172689	-0.664655	-0.393749	0.164592	-0.707710	-0.244489	0.066203	-0.756627	-0.214721	0.064974	-0.682600	-0.191330	0.053781	-0.689775	
879	4.3950	-0.285365	1.628636	-0.546162	-0.250293	1.616050	-0.729709	-0.223646	1.603091	-0.346180	-0.145560	1.571795	-0.544746	-0.185350	1.124747	-0.410653	-0.163302	1.120507	-0.689206	-0.247592	1.191201	-0.395195	-0.219030	1.183614	-0.712995	-0.328997	1.158292	-0.522253	-0.321911	1.160185	-0.606086	-0.323574	1.163127	-0.561903	-0.262729	0.899029	-0.364117	-0.251973	0.840710	-0.356668	-0.188580	0.851809	-0.344903	-0.192269	0.912870	-0.352618	-0.214102	0.570861	-0.372296	-0.190671	0.564909	-0.480843	-0.314266	0.407061	-0.360402	-0.325743	0.367525	-0.371938	-0.267136	0.352432	-0.362835	-0.259557	0.391133	-0.356276	-0.331512	0.171294	-0.379621	-0.284764	0.175752	-0.462490	-0.380364	0.155200	-0.427590	-0.236218	0.071579	-0.360085	-0.181782	0.083376	-0.421356	-0.156555	0.068609	-0.414397	-0.262694	0.909483	-0.745058	-0.251122	0.849126	-0.752166	-0.187853	0.856732	-0.762088	-0.190581	0.916850	-0.756350	-0.204486	0.577566	-0.731959	-0.192503	0.563589	-0.629165	-0.324131	0.376676	-0.751281	-0.335114	0.337706	-0.743921	-0.274991	0.325101	-0.752676	-0.271268	0.368450	-0.759391	-0.340490	0.181294	-0.750931	-0.307649	0.174180	-0.664585	-0.391960	0.165355	-0.707979	-0.241546	0.068435	-0.756608	-0.211874	0.067404	-0.682571	-0.188384	0.056264	-0.689715	
880	4.4000	-0.285331	1.629828	-0.545696	-0.250486	1.617132	-0.729423	-0.223633	1.603951	-0.345780	-0.145707	1.573139	-0.544497	-0.185211	1.126103	-0.410878	-0.163404	1.122144	-0.689336	-0.247412	1.193205	-0.395063	-0.219457	1.185610	-0.712946	-0.328986	1.159884	-0.522196	-0.321978	1.161821	-0.606042	-0.323564	1.164713	-0.561869	-0.262130	0.900285	-0.364100	-0.251344	0.841982	-0.356662	-0.187909	0.853049	-0.345302	-0.191608	0.914110	-0.353012	-0.213702	0.572204	-0.372442	-0.190958	0.566249	-0.481266	-0.313733	0.408255	-0.359943	-0.325120	0.368667	-0.371485	-0.266434	0.353672	-0.362493	-0.258930	0.392399	-0.356015	-0.330467	0.172322	-0.378971	-0.283913	0.176859	-0.461975	-0.379425	0.155468	-0.426851	-0.234198	0.074138	-0.358640	-0.179709	0.086191	-0.419833	-0.154294	0.071683	-0.412747	-0.262101	0.910750	-0.745211	-0.250449	0.850407	-0.752261	-0.187167	0.858065	-0.762060	-0.189972	0.918186	-0.756361	-0.203064	0.578877	-0.731784	-0.191761	0.564850	-0.628913	-0.322566	0.377945	-0.751447	-0.333514	0.338966	-0.744093	-0.273361	0.326427	-0.752652	-0.269668	0.369790	-0.759384	-0.338537	0.182389	-0.750992	-0.305903	0.175501	-0.664493	-0.390184	0.165945	-0.708164	-0.238694	0.070451	-0.756542	-0.209085	0.069652	-0.682529	-0.185508	0.058610	-0.689627	
881	4.4050	-0.285306	1.630810	-0.545237	-0.250697	1.617921	-0.729208	-0.223610	1.604507	-0.345340	-0.145783	1.574161	-0.544249	-0.185072	1.127222	-0.411097	-0.163533	1.123532	-0.689473	-0.247257	1.194784	-0.394915	-0.219937	1.187087	-0.712904	-0.329025	1.161104	-0.522104	-0.322091	1.163088	-0.605966	-0.323612	1.165924	-0.561818	-0.261408	0.901338	-0.364000	-0.250598	0.843030	-0.356621	-0.187108	0.854069	-0.345765	-0.190823	0.915122	-0.353451	-0.213291	0.573349	-0.372591	-0.191274	0.567403	-0.481764	-0.313283	0.409265	-0.359534	-0.324586	0.369635	-0.371085	-0.265824	0.354708	-0.362202	-0.258380	0.393465	-0.355800	-0.329528	0.173172	-0.378382	-0.283222	0.177796	-0.461547	-0.378617	0.155556	-0.426134	-0.232227	0.076610	-0.357368	-0.177830	0.088872	-0.418564	-0.152227	0.074623	-0.411364	-0.261397	0.911730	-0.745395	-0.249622	0.851413	-0.752365	-0.186327	0.859159	-0.761988	-0.189250	0.919289	-0.756342	-0.201699	0.580014	-0.731616	-0.191001	0.565950	-0.628644	-0.321057	0.379012	-0.751543	-0.331952	0.340028	-0.744209	-0.271777	0.327573	-0.752629	-0.268128	0.370954	-0.759370	-0.336641	0.183290	-0.751013	-0.304161	0.176633	-0.664391	-0.388436	0.166346	-0.708280	-0.235950	0.072266	-0.756440	-0.206328	0.071751	-0.682446	-0.182671	0.060819	-0.689492	
882	4.4100	-0.285286	1.631589	-0.544792	-0.250925	1.618409	-0.729061	-0.223595	1.604762	-0.344872	-0.145855	1.574882	-0.544020	-0.184936	1.128105	-0.411303	-0.163674	1.124668	-0.689605	-0.247133	1.195908	-0.394768	-0.220443	1.188047	-0.712867	-0.329105	1.161959	-0.521986	-0.322242	1.163999	-0.605868	-0.323707	1.166779	-0.561751	-0.260594	0.902170	-0.363853	-0.249760	0.843866	-0.356559	-0.186208	0.854870	-0.346287	-0.189944	0.915917	-0.353927	-0.212843	0.574273	-0.372747	-0.191593	0.568345	-0.482318	-0.312890	0.410084	-0.359173	-0.324121	0.370406	-0.370740	-0.265285	0.355520	-0.361976	-0.257894	0.394313	-0.355640	-0.328700	0.173860	-0.377850	-0.282694	0.178574	-0.461218	-0.377947	0.155488	-0.425446	-0.230361	0.078914	-0.356277	-0.176208	0.091332	-0.417557	-0.150399	0.077360	-0.410284	-0.260588	0.912448	-0.745603	-0.248654	0.852155	-0.752478	-0.185336	0.860041	-0.761869	-0.188417	0.920175	-0.756286	-0.200381	0.580977	-0.731467	-0.190208	0.566903	-0.628359	-0.319620	0.379894	-0.751590	-0.330461	0.340882	-0.744271	-0.270278	0.328528	-0.752601	-0.266672	0.371919	-0.759339	-0.334822	0.183984	-0.750987	-0.302458	0.177582	-0.664259	-0.386731	0.166528	-0.708346	-0.233246	0.073896	-0.756308	-0.203648	0.073668	-0.682297	-0.179853	0.062942	-0.689309	
883	4.4150	-0.285272	1.632163	-0.544369	-0.251167	1.618612	-0.728969	-0.223601	1.604725	-0.344389	-0.145928	1.575307	-0.543812	-0.184812	1.128753	-0.411491	-0.163818	1.125542	-0.689721	-0.247033	1.196583	-0.394632	-0.220956	1.188520	-0.712834	-0.329217	1.162467	-0.521857	-0.322424	1.164565	-0.605749	-0.323839	1.167294	-0.561673	-0.259719	0.902785	-0.363678	-0.248859	0.844475	-0.356496	-0.185234	0.855445	-0.346852	-0.188998	0.916489	-0.354434	-0.212339	0.574954	-0.372907	-0.191878	0.569051	-0.482905	-0.312530	0.410693	-0.358867	-0.323703	0.370986	-0.370449	-0.264792	0.356098	-0.361816	-0.257444	0.394937	-0.355548	-0.327988	0.174386	-0.377363	-0.282320	0.179174	-0.460980	-0.377428	0.155329	-0.424825	-0.228742	0.080877	-0.355435	-0.174892	0.093409	-0.416810	-0.148883	0.079712	-0.409501	-0.259685	0.912914	-0.745831	-0.247554	0.852657	-0.752604	-0.184213	0.860705	-0.761699	-0.187490	0.920834	-0.756179	-0.199105	0.581750	-0.731324	-0.189372	0.567699	-0.628063	-0.318277	0.380587	-0.751594	-0.329060	0.341541	-0.744273	-0.268878	0.329269	-0.752572	-0.265308	0.372678	-0.759301	-0.333094	0.184474	-0.750904	-0.300825	0.178337	-0.664084	-0.385092	0.166475	-0.708371	-0.230569	0.075437	-0.756142	-0.201001	0.075489	-0.682078	-0.177096	0.064981	-0.689085	
